<?xml version="1.0" standalone="no"?>
<!DOCTYPE svg PUBLIC "-//W3C//DTD SVG 20010904//EN"
 "http://www.w3.org/TR/2001/REC-SVG-20010904/DTD/svg10.dtd">
<svg version="1.0" xmlns="http://www.w3.org/2000/svg"
 width="200.000000pt" height="92.000000pt" viewBox="0 0 200.000000 92.000000"
 preserveAspectRatio="xMidYMid meet">

<g transform="translate(0.000000,92.000000) scale(0.100000,-0.100000)"
fill="#000000" stroke="none">
<path d="M207 826 c-51 -14 -98 -52 -125 -101 -15 -26 -17 -65 -17 -270 0
-236 0 -241 25 -290 30 -59 81 -90 167 -101 130 -16 241 46 262 147 6 28 11
77 11 109 l0 60 -100 0 -99 0 -3 -92 c-3 -83 -5 -93 -22 -96 -41 -8 -46 19
-46 258 0 239 5 266 46 258 17 -3 19 -14 22 -106 l3 -102 99 0 100 0 0 73 c-1
92 -13 152 -37 186 -45 62 -186 96 -286 67z"/>
<path d="M707 827 c-76 -22 -109 -62 -121 -149 -10 -64 2 -131 28 -171 12 -17
51 -54 86 -80 128 -94 137 -103 144 -146 8 -50 -7 -91 -33 -91 -28 0 -41 30
-41 94 l0 56 -91 0 -92 0 5 -79 c6 -100 26 -137 93 -171 71 -35 189 -35 260 0
67 34 85 70 85 175 0 44 -4 96 -10 114 -12 43 -57 91 -135 143 -96 65 -115 86
-115 129 0 39 20 65 45 55 11 -4 15 -20 15 -56 l0 -50 96 0 97 0 -7 66 c-4 37
-13 79 -21 94 -32 61 -183 96 -288 67z"/>
<path d="M1647 827 c-76 -22 -109 -62 -121 -149 -10 -64 2 -131 28 -171 12
-17 51 -54 86 -80 127 -93 138 -104 145 -145 8 -49 -8 -92 -34 -92 -28 0 -41
30 -41 94 l0 56 -91 0 -92 0 5 -79 c6 -100 26 -137 93 -171 71 -35 189 -35
260 0 67 34 85 70 85 175 0 44 -4 96 -10 114 -12 43 -57 91 -135 143 -96 65
-115 86 -115 129 0 39 20 65 45 55 11 -4 15 -20 15 -56 l0 -50 96 0 97 0 -7
66 c-4 37 -13 79 -21 94 -32 61 -183 96 -288 67z"/>
<path d="M1070 755 l0 -75 55 0 55 0 0 -305 0 -305 100 0 100 0 0 305 0 305
60 0 60 0 0 75 0 75 -215 0 -215 0 0 -75z"/>
</g>
</svg>
